<svg xmlns="http://www.w3.org/2000/svg" xmlns:xlink="http://www.w3.org/1999/xlink" width="20" height="20" viewBox="0 0 20 20"><path fill="rgb(47.843137%, 63.529412%, 96.862745%)" d="M 4 0 L 16 0 C 18.210938 0 20 1.789062 20 4 L 20 16 C 20 18.210938 18.210938 20 16 20 L 4 20 C 1.789062 20 0 18.210938 0 16 L 0 4 C 0 1.789062 1.789062 0 4 0 Z M 4 0"/><path fill="rgb(100%, 100%, 100%)" d="M 12.5 11.5 L 12.5 16.5 L 10.5 16.5 L 10.5 5.5 L 8.5 5.5 L 8.5 16.5 L 6.5 16.5 L 6.5 11.5 L 4.5 11.5 L 4.5 9.5 L 6.5 9.5 L 6.5 5.5 L 4.5 5.5 L 4.5 3.5 L 12.5 3.5 C 13.5625 3.5 14.578125 3.921875 15.328125 4.671875 C 16.078125 5.421875 16.5 6.4375 16.5 7.5 C 16.5 8.5625 16.078125 9.578125 15.328125 10.328125 C 14.578125 11.078125 13.5625 11.5 12.5 11.5 Z M 12.5 11.5"/></svg>